<svg width="24" height="24" viewBox="0 0 24 24" fill="none" xmlns="http://www.w3.org/2000/svg">
<path d="M19.4995 8.25H4.49945C4.08524 8.25 3.74945 8.58579 3.74945 9V19.5C3.74945 19.9142 4.08524 20.25 4.49945 20.25H19.4995C19.9137 20.25 20.2495 19.9142 20.2495 19.5V9C20.2495 8.58579 19.9137 8.25 19.4995 8.25Z" stroke="black" stroke-width="1.5" stroke-linecap="round" stroke-linejoin="round"/>
<path d="M8.62445 8.25V4.875C8.62445 3.97989 8.98003 3.12145 9.61297 2.48851C10.2459 1.85558 11.1043 1.5 11.9995 1.5C12.8946 1.5 13.753 1.85558 14.3859 2.48851C15.0189 3.12145 15.3745 3.97989 15.3745 4.875V8.25" stroke="black" stroke-width="1.5" stroke-linecap="round" stroke-linejoin="round"/>
</svg>
