<svg width="32" height="32" viewBox="0 0 32 32" fill="none" xmlns="http://www.w3.org/2000/svg">
<path d="M5.6786 22.1248C4.18768 19.6115 3.66554 16.6403 4.21024 13.7692C4.75494 10.8982 6.329 8.32472 8.63685 6.5321C10.9447 4.73947 13.8276 3.85099 16.7442 4.0335C19.6607 4.21601 22.4103 5.45696 24.4767 7.52331C26.5431 9.58967 27.784 12.3393 27.9666 15.2559C28.1491 18.1724 27.2606 21.0553 25.468 23.3632C23.6754 25.671 21.1019 27.2451 18.2309 27.7898C15.3598 28.3345 12.3887 27.8124 9.87532 26.3215L9.87534 26.3214L5.73077 27.5055C5.5593 27.5545 5.37784 27.5568 5.20521 27.512C5.03257 27.4673 4.87504 27.3772 4.74894 27.2511C4.62283 27.125 4.53275 26.9675 4.48802 26.7948C4.44328 26.6222 4.44553 26.4408 4.49452 26.2693L5.67869 22.1247L5.6786 22.1248Z" stroke="black" stroke-width="1.5" stroke-linecap="round" stroke-linejoin="round"/>
<path d="M10 18L14 14L18 18L22 14" stroke="black" stroke-width="1.5" stroke-linecap="round" stroke-linejoin="round"/>
</svg>
